<?xml version="1.0" encoding="UTF-8" standalone="no"?>
<!-- Created with Inkscape (http://www.inkscape.org/) -->

<svg
   xmlns:dc="http://purl.org/dc/elements/1.1/"
   xmlns:cc="http://creativecommons.org/ns#"
   xmlns:rdf="http://www.w3.org/1999/02/22-rdf-syntax-ns#"
   xmlns:svg="http://www.w3.org/2000/svg"
   xmlns="http://www.w3.org/2000/svg"
   xmlns:sodipodi="http://sodipodi.sourceforge.net/DTD/sodipodi-0.dtd"
   xmlns:inkscape="http://www.inkscape.org/namespaces/inkscape"
   width="79.536522mm"
   height="54.255402mm"
   viewBox="0 0 79.536522 54.255402"
   version="1.1"
   id="svg8"
   inkscape:version="0.92.5 (2060ec1f9f, 2020-04-08)"
   sodipodi:docname="logo.svg">
  <defs
     id="defs2" />
  <sodipodi:namedview
     id="base"
     pagecolor="#ffffff"
     bordercolor="#666666"
     borderopacity="1.0"
     inkscape:pageopacity="0.0"
     inkscape:pageshadow="2"
     inkscape:zoom="0.35"
     inkscape:cx="193.16238"
     inkscape:cy="-11.755818"
     inkscape:document-units="mm"
     inkscape:current-layer="layer1"
     showgrid="false"
     inkscape:window-width="1680"
     inkscape:window-height="938"
     inkscape:window-x="0"
     inkscape:window-y="27"
     inkscape:window-maximized="1" />
  <metadata
     id="metadata5">
    <rdf:RDF>
      <cc:Work
         rdf:about="">
        <dc:format>image/svg+xml</dc:format>
        <dc:type
           rdf:resource="http://purl.org/dc/dcmitype/StillImage" />
        <dc:title></dc:title>
      </cc:Work>
    </rdf:RDF>
  </metadata>
  <g
     inkscape:label="Layer 1"
     inkscape:groupmode="layer"
     id="layer1"
     transform="translate(-56.237691,-95.247298)">
    <g
       id="ohODBhkjaXRokhSoJrZY3"
       transform="matrix(0.16139583,0,0,0.16139583,96.00595,122.375)">
<path
   id="path3736"
   d="m 9.62278,-168.0818 c -90.648,0 -164.5,74.801 -164.5,166.77 0,91.977 73.852,166.6 164.5,166.6 51.473,0 97.621,-23.766 127.75,-61.426 3.5938,-4.875 2.7852,-11.758 -1.8438,-15.637 -4.625,-3.8789 -11.438,-3.3867 -15.48,1.1133 -26.07,32.586 -65.777,53.551 -110.43,53.551 -78.633,0 -141.93,-64.418 -141.93,-144.2 0,-79.781 63.293,-144.38 141.93,-144.38 78.637,0 142.1,64.594 142.1,144.38 0,17.934 -3.0547,35.121 -8.9258,50.926 -1.1602,2.832 -1.1367,6.0195 0.0664,8.832 1.2031,2.8125 3.4844,5.0078 6.3164,6.0781 2.832,1.0703 5.9688,0.92578 8.6953,-0.40234 2.7227,-1.3281 4.7969,-3.7227 5.7461,-6.6328 6.7969,-18.297 10.5,-38.129 10.5,-58.801 0,-91.973 -73.852,-166.77 -164.5,-166.77 z m 225.23,28.176 c -1.457,0.0742 -2.8828,0.42969 -4.2031,1.0508 -24.703,10.773 -41.648,35.508 -41.648,64.223 v 61.777 c -0.043,2.9961 1.1172,5.8867 3.2227,8.0195 2.1055,2.1367 4.9805,3.3398 7.9766,3.3398 3,0 5.8711,-1.2031 7.9766,-3.3398 2.1055,-2.1328 3.2656,-5.0234 3.2227,-8.0195 v -61.777 c 0,-12.566 4.9727,-23.414 12.602,-31.848 V 14.44 h -16.273 c -3,-0.03906 -5.8906,1.1211 -8.0234,3.2266 -2.1367,2.1055 -3.3359,4.9766 -3.3359,7.9766 0,2.9961 1.1992,5.8711 3.3359,7.9766 2.1328,2.1016 5.0234,3.2656 8.0234,3.2227 h 16.273 v 119.88 c -0.043,2.9961 1.1172,5.8867 3.2227,8.0234 2.1055,2.1328 4.9805,3.3359 7.9766,3.3359 3,0 5.8711,-1.2031 7.9766,-3.3359 2.1055,-2.1367 3.2656,-5.0273 3.2227,-8.0234 v -285.43 c 0.004,-3.0312 -1.2266,-5.9336 -3.4023,-8.0469 -2.1758,-2.1094 -5.1172,-3.2461 -8.1445,-3.1523 z m -470.23,11.898 c -2.9688,0.0469 -5.8008,1.2734 -7.8672,3.4062 -2.0703,2.1328 -3.2031,5 -3.1562,7.9688 v 51.102 c 0,22.113 13.656,41.699 33.074,47.25 v 175 c -0.043,2.9961 1.1172,5.8867 3.2227,8.0234 2.1055,2.1328 4.9766,3.3359 7.9766,3.3359 3,0 5.8711,-1.2031 7.9766,-3.3359 2.1055,-2.1367 3.2656,-5.0273 3.2227,-8.0234 v -175 c 19.418,-5.5508 33.074,-25.137 33.074,-47.25 v -51.102 c 0.043,-2.9961 -1.1172,-5.8867 -3.2227,-8.0234 -2.1055,-2.1328 -4.9766,-3.3359 -7.9766,-3.3359 -2.9961,0 -5.8711,1.2031 -7.9766,3.3359 -2.1055,2.1367 -3.2656,5.0273 -3.2227,8.0234 v 51.102 c 0,15.625 -10.391,26.426 -21.875,26.426 -11.484,0 -21.875,-10.801 -21.875,-26.426 v -51.102 c 0.0469,-3.0312 -1.1367,-5.9531 -3.2812,-8.0938 -2.1406,-2.1445 -5.0625,-3.3281 -8.0938,-3.2812 z m 32.023,0.17578 c -5.7695,0.63281 -10.098,5.5703 -9.9727,11.375 v 51.449 c -0.043,3 1.1172,5.8867 3.2227,8.0234 2.1055,2.1367 4.9766,3.3359 7.9766,3.3359 3,0 5.8711,-1.1992 7.9766,-3.3359 2.1055,-2.1367 3.2656,-5.0234 3.2227,-8.0234 v -51.449 c 0.0703,-3.2266 -1.2539,-6.3242 -3.6328,-8.5039 -2.3828,-2.1758 -5.5859,-3.2227 -8.793,-2.8711 z m 211.93,13.125 c -5.5898,0.91016 -9.6133,5.9375 -9.3438,11.676 0.26562,5.7383 4.7422,10.355 10.395,10.723 49.59,0 89.602,40.684 89.602,91 0,50.32 -40.012,90.828 -89.602,90.828 -49.59,0 -89.426,-40.508 -89.426,-90.828 0,-32.391 16.613,-60.887 41.652,-77 5.1914,-3.332 6.7344,-10.305 3.4492,-15.574 -3.2852,-5.2656 -10.16,-6.832 -15.352,-3.5 -31.25,20.113 -52.148,55.832 -52.148,96.074 0,62.512 50.215,113.23 111.82,113.23 61.605,0 111.82,-50.715 111.82,-113.23 0,-62.508 -50.215,-113.4 -111.82,-113.4 -0.35156,-0.0156 -0.69922,-0.0156 -1.0508,0 z"
   style="opacity:1;vector-effect:non-scaling-stroke;fill:#ffb800;fill-rule:nonzero;stroke:none;stroke-width:1;stroke-linecap:butt;stroke-linejoin:miter;stroke-miterlimit:4;stroke-dasharray:none;stroke-dashoffset:0"
   inkscape:connector-curvature="0" />

</g>
  </g>
</svg>
